<?xml version="1.0" standalone="no"?>
<!DOCTYPE svg PUBLIC "-//W3C//DTD SVG 20010904//EN"
 "http://www.w3.org/TR/2001/REC-SVG-20010904/DTD/svg10.dtd">
<svg version="1.0" xmlns="http://www.w3.org/2000/svg"
 width="1370.000000pt" height="1370.000000pt" viewBox="0 0 1370.000000 1370.000000"
 preserveAspectRatio="xMidYMid meet">
<metadata>
Created by potrace 1.14, written by Peter Selinger 2001-2017
</metadata>
<g transform="translate(0.000000,1370.000000) scale(0.100000,-0.100000)"
fill="#000000" stroke="none">
<path d="M6874 12368 c-33 -11 -63 -23 -69 -28 -5 -4 -271 -150 -590 -325
-319 -175 -598 -328 -620 -340 -22 -12 -65 -35 -95 -52 -66 -36 -160 -88 -215
-118 -22 -12 -137 -75 -255 -140 -557 -305 -849 -465 -890 -487 -25 -14 -216
-119 -425 -233 -417 -229 -393 -216 -620 -340 -88 -48 -182 -100 -210 -115
-27 -15 -192 -105 -365 -200 -173 -95 -459 -251 -635 -348 -176 -96 -340 -186
-365 -199 -25 -14 -117 -65 -205 -113 -212 -116 -254 -139 -290 -160 -16 -10
-72 -37 -123 -59 -359 -155 -613 -500 -691 -936 -23 -134 -22 -371 3 -510 55
-301 185 -535 406 -727 l55 -48 -40 -32 c-134 -111 -248 -267 -325 -447 -86
-198 -119 -370 -115 -596 7 -419 153 -742 449 -988 l30 -24 -39 -34 c-167
-144 -298 -346 -374 -576 -50 -148 -64 -234 -67 -408 -6 -407 121 -743 372
-978 177 -166 336 -241 674 -316 176 -39 790 -172 970 -211 155 -33 594 -130
635 -140 31 -8 573 -127 655 -145 8 -2 161 -35 340 -75 179 -39 438 -96 575
-126 138 -30 381 -84 540 -119 270 -60 746 -164 1000 -220 61 -13 297 -65 525
-115 228 -50 559 -123 735 -162 344 -76 387 -82 452 -63 23 7 160 79 305 161
145 82 324 182 398 224 74 42 338 190 585 330 248 139 500 281 560 315 61 34
450 253 865 487 818 460 792 445 960 540 63 36 189 107 280 158 91 51 185 104
210 118 25 14 74 42 110 62 36 20 85 48 110 62 25 14 241 135 480 270 239 135
460 259 490 276 424 237 450 254 476 319 8 18 14 53 14 78 0 120 -90 209 -211
209 -65 0 15 42 -999 -529 -349 -197 -655 -369 -680 -383 -25 -14 -344 -194
-710 -400 -366 -206 -690 -388 -720 -404 -30 -17 -84 -47 -120 -68 -36 -21
-355 -201 -710 -400 -355 -200 -661 -372 -680 -383 -36 -20 -357 -201 -555
-312 -60 -34 -128 -73 -150 -85 -298 -169 -396 -220 -419 -220 -14 0 -111 18
-214 41 -103 23 -206 45 -229 50 -23 4 -125 27 -225 49 -101 23 -194 44 -208
46 -14 2 -43 9 -65 14 -32 8 -1055 233 -1115 245 -8 2 -87 19 -175 38 -88 20
-275 61 -415 92 -140 30 -293 64 -340 75 -47 10 -96 21 -110 24 -14 2 -119 25
-235 51 -389 86 -609 134 -820 180 -115 25 -228 49 -250 55 -22 5 -146 33
-275 60 -129 28 -246 53 -260 57 -14 3 -34 8 -44 10 -11 2 -47 10 -80 17 -34
8 -259 58 -501 111 -242 53 -467 102 -500 110 -33 7 -118 26 -190 41 -152 31
-244 62 -324 109 -277 162 -417 520 -355 906 51 321 255 581 505 645 39 10 82
14 111 11 27 -4 295 -60 596 -127 301 -66 597 -132 657 -145 61 -13 182 -40
270 -59 88 -20 194 -43 235 -51 41 -9 82 -18 90 -20 341 -75 1143 -251 1190
-261 36 -8 106 -23 155 -33 50 -11 119 -27 155 -35 36 -9 313 -70 615 -136
303 -66 568 -124 590 -130 37 -9 356 -79 1125 -246 162 -35 313 -69 335 -74
157 -38 289 -63 340 -63 78 -1 77 -2 725 364 289 163 543 307 565 319 22 12
54 30 70 40 17 9 55 31 85 47 30 17 316 178 635 358 319 180 603 339 630 355
28 15 349 196 715 402 366 206 692 390 725 408 33 18 65 36 70 40 6 4 35 21
65 37 30 16 129 72 220 123 91 51 185 104 210 118 25 14 164 93 310 175 146
82 290 163 320 180 30 16 116 65 190 107 74 42 169 95 211 118 149 82 193 161
158 287 -16 57 -84 120 -145 133 -26 6 -57 8 -68 6 -59 -11 -82 -17 -91 -24
-5 -4 -134 -77 -285 -162 -151 -85 -565 -318 -920 -518 -355 -200 -661 -372
-680 -383 -19 -11 -105 -59 -190 -107 -85 -48 -357 -201 -605 -341 -247 -139
-569 -320 -715 -402 -494 -278 -675 -380 -720 -405 -25 -14 -74 -42 -110 -62
-36 -20 -85 -48 -110 -62 -25 -14 -135 -76 -245 -138 -110 -62 -220 -124 -245
-138 -25 -13 -58 -32 -75 -42 -16 -10 -50 -29 -75 -42 -25 -14 -151 -85 -280
-158 -351 -198 -354 -200 -387 -200 -17 0 -161 29 -320 64 -158 35 -425 94
-593 131 -168 36 -377 82 -465 102 -88 19 -169 37 -179 39 -11 2 -121 26 -245
53 -201 45 -624 138 -1071 236 -668 147 -1032 227 -1325 291 -187 41 -398 88
-470 104 -71 16 -193 43 -270 59 -77 17 -264 58 -415 91 -300 66 -536 118
-845 185 -217 47 -271 64 -367 118 -280 158 -423 512 -364 897 46 295 214 539
433 630 126 53 131 52 571 -45 215 -47 401 -88 413 -90 11 -2 143 -31 292 -64
248 -55 698 -154 987 -217 63 -14 125 -28 137 -30 12 -2 205 -45 428 -94 223
-50 428 -92 455 -94 127 -10 234 106 215 232 -8 54 -26 93 -58 123 -49 47 -28
42 -997 254 -190 41 -374 81 -410 89 -36 9 -138 31 -227 51 -90 19 -236 51
-325 71 -90 20 -170 37 -179 39 -128 25 -1143 250 -1194 264 -152 43 -281 126
-370 238 -60 76 -132 222 -155 312 -32 123 -34 360 -5 486 56 245 206 457 387
549 91 46 117 48 253 18 55 -12 141 -30 190 -41 50 -10 281 -60 515 -111 234
-50 487 -104 563 -121 249 -53 415 -89 555 -118 75 -17 380 -82 677 -145 297
-64 558 -120 580 -126 43 -10 217 -48 251 -54 11 -2 265 -57 565 -121 603
-129 755 -162 814 -175 199 -41 1290 -275 1335 -285 237 -55 296 -59 375 -29
35 14 229 120 335 183 19 11 42 24 50 28 8 4 36 19 61 34 26 15 73 42 105 59
33 18 140 79 239 135 99 56 329 186 510 288 182 101 416 233 520 292 105 60
210 119 235 133 25 14 97 54 160 90 63 36 135 76 160 90 25 14 326 183 670
377 344 193 645 363 670 377 683 381 2002 1127 2021 1142 55 44 74 85 74 163
0 63 -3 76 -30 115 -31 43 -89 83 -135 92 -19 3 -308 67 -460 101 -8 2 -49 11
-90 20 -68 14 -325 71 -705 155 -77 17 -151 33 -165 36 -14 3 -104 23 -200 44
-96 21 -321 71 -500 110 -179 39 -343 75 -365 80 -22 6 -350 78 -730 160 -379
83 -708 154 -730 160 -22 5 -146 33 -275 61 -129 28 -242 52 -250 54 -8 2 -58
13 -110 24 -93 19 -567 124 -1345 296 -214 48 -411 88 -436 90 -28 1 -71 -6
-105 -17z"/>
<path d="M13253 8900 c-18 -4 -133 -64 -255 -133 -123 -69 -239 -134 -258
-145 -19 -10 -109 -61 -200 -112 -91 -51 -181 -102 -200 -113 -178 -99 -1448
-814 -1595 -897 -104 -59 -212 -120 -240 -136 -72 -40 -49 -27 -790 -444
-1155 -651 -1610 -907 -1876 -1056 -177 -100 -266 -144 -287 -144 -17 0 -215
41 -439 91 -224 49 -448 99 -498 109 -49 11 -121 27 -160 35 -38 9 -83 19
-100 21 -16 3 -52 11 -80 18 -87 22 -158 7 -214 -46 -85 -79 -88 -218 -6 -300
44 -44 54 -47 355 -112 140 -31 284 -62 320 -70 36 -9 220 -49 410 -91 190
-42 354 -79 365 -81 41 -10 132 -6 171 6 40 13 125 57 224 115 30 18 168 96
305 173 138 77 459 258 715 402 256 144 539 304 630 355 91 51 287 161 435
245 149 84 290 163 315 177 25 14 97 55 160 91 63 36 135 76 160 90 25 14 80
45 123 69 42 24 99 55 125 70 26 14 259 145 517 291 259 145 580 326 715 402
135 75 335 188 445 250 110 62 216 122 235 133 19 11 171 96 337 189 166 93
317 185 335 203 143 147 3 390 -199 345z"/>
<path d="M4844 7268 c-4 -6 -8 -479 -8 -1051 -1 -819 2 -1041 11 -1044 7 -3
111 56 232 131 120 75 223 136 229 136 13 0 16 -3 112 -110 41 -46 88 -97 104
-114 15 -17 44 -49 65 -71 158 -174 235 -255 241 -255 8 0 8 2216 0 2222 -4 4
-264 51 -345 62 -11 2 -36 6 -55 9 -19 4 -78 13 -130 22 -52 8 -106 17 -120
19 -14 3 -59 10 -100 16 -41 7 -84 14 -95 16 -23 5 -68 12 -107 18 -15 3 -31
0 -34 -6z"/>
</g>
</svg>
